<svg id="Layer_1" height="512" width="512" xmlns="http://www.w3.org/2000/svg"><path d="M82 298.041V133.959C82 78.753 126.644 34 181.716 34H121C65.771 34 21 78.771 21 134v164c0 55.228 44.771 100 100 100h60.716C126.644 398 82 353.247 82 298.041z" fill="#6f6f6f"/><path d="M392 418H119.979C53.822 418 0 364.177 0 298.021V134C0 67.832 53.832 14 120 14h272c66.168 0 120 53.832 120 120v164c0 66.168-53.832 120-120 120zM120 54c-44.112 0-80 35.888-80 80v164.021C40 342.121 75.879 378 119.979 378H392c44.112 0 80-35.888 80-80V134c0-44.112-35.888-80-80-80zm252 424c0-11.046-8.954-20-20-20H160c-11.046 0-20 8.954-20 20s8.954 20 20 20h192c11.046 0 20-8.954 20-20z" fill="#515151"/><path d="m352.29 252.85-13.324-7.994C341.578 236.698 343 228.013 343 219s-1.422-17.698-4.034-25.856l13.324-7.994c9.472-5.683 12.543-17.968 6.859-27.44s-17.971-12.542-27.439-6.86l-13.569 8.142c-10.877-10.901-24.695-18.853-40.141-22.593V119c0-11.046-8.954-20-20-20s-20 8.954-20 20v17.399c-15.798 3.826-29.881 12.071-40.868 23.356l-14.842-8.905c-9.469-5.682-21.756-2.612-27.439 6.86-5.684 9.472-2.612 21.757 6.859 27.44l15.004 9.002A84.7 84.7 0 0 0 173 219a84.7 84.7 0 0 0 3.714 24.848l-15.004 9.002c-9.472 5.683-12.543 17.968-6.86 27.439 3.751 6.25 10.375 9.713 17.169 9.713 3.502 0 7.05-.92 10.271-2.853l14.842-8.905c10.987 11.285 25.07 19.53 40.868 23.356V319c0 11.046 8.954 20 20 20s20-8.954 20-20v-17.399c15.446-3.74 29.264-11.692 40.14-22.593l13.57 8.142a19.908 19.908 0 0 0 10.271 2.853c6.794 0 13.419-3.463 17.169-9.713 5.683-9.472 2.612-21.757-6.86-27.44zM258 264c-24.813 0-45-20.187-45-45s20.187-45 45-45 45 20.187 45 45-20.187 45-45 45z" fill="#D63447"/></svg>