<svg id="Layer_1" height="512" width="512" xmlns="http://www.w3.org/2000/svg"><path d="M80 452c0-22.091 17.909-40 40-40H60c-22.091 0-40 17.909-40 40s17.909 40 40 40h60c-22.091 0-40-17.909-40-40z" fill="#6f6f6f"/><path d="M452 357c-11.046 0-20-8.954-20-20v-28c0-11.046 8.954-20 20-20s20 8.954 20 20v28c0 11.046-8.954 20-20 20zM80 337V190c0-44.112 35.888-80 80-80h37c11.046 0 20-8.954 20-20s-8.954-20-20-20h-37C93.832 70 40 123.832 40 190v147c0 11.046 8.954 20 20 20s20-8.954 20-20zm432 115c0-33.084-26.916-60-60-60H60c-33.084 0-60 26.916-60 60s26.916 60 60 60h392c33.084 0 60-26.916 60-60zm-60-20c11.028 0 20 8.972 20 20s-8.972 20-20 20H60c-11.028 0-20-8.972-20-20s8.972-20 20-20z" fill="#515151"/><path d="M267.496 264a20 20 0 0 1-19.996-20.002l.005-110.807c-.313-35.359 13.286-68.738 38.298-93.991C310.841 13.922 344.116 0 379.5 0c35.626 0 68.949 13.834 93.829 38.955 24.953 25.194 38.507 58.697 38.165 94.337-.337 35.115-14.301 68.016-39.32 92.64C447.231 250.482 414.163 264 379.055 264h-.128c-20.645 0-40.385-4.612-58.659-13.71-12.288-6.118-27.084-3.689-36.818 6.045l-1.808 1.808A20 20 0 0 1 267.496 264zm38.571-57.063a71.762 71.762 0 0 1 32.028 7.546c12.686 6.315 26.43 9.518 40.851 9.518h.088c50.517.003 91.979-40.853 92.461-91.092.239-24.884-9.203-48.253-26.586-65.805C427.599 49.625 404.369 40 379.5 40c-24.627 0-47.809 9.713-65.277 27.349-17.466 17.635-26.956 40.917-26.719 65.559l.001.193-.004 76.274a71.923 71.923 0 0 1 18.566-2.438z" fill="#D63447"/></svg>